<svg width="39" height="39" viewBox="0 0 39 39" fill="none" xmlns="http://www.w3.org/2000/svg">
<g id="teenyicons:facebook-outline" clip-path="url(#clip0_91_312)">
<path id="Vector" d="M19.2656 37.2467C16.9043 37.2467 14.5661 36.7816 12.3845 35.8779C10.2029 34.9743 8.22066 33.6498 6.55095 31.9801C4.88124 30.3104 3.55675 28.3281 2.6531 26.1466C1.74946 23.965 1.28436 21.6268 1.28436 19.2654C1.28436 16.9041 1.74946 14.5659 2.6531 12.3843C3.55675 10.2027 4.88124 8.22048 6.55095 6.55077C8.22066 4.88105 10.2029 3.55656 12.3845 2.65292C14.5661 1.74928 16.9043 1.28418 19.2656 1.28418C24.0345 1.28418 28.6081 3.17863 31.9803 6.55077C35.3524 9.92291 37.2469 14.4965 37.2469 19.2654C37.2469 24.0344 35.3524 28.608 31.9803 31.9801C28.6081 35.3522 24.0345 37.2467 19.2656 37.2467ZM19.2656 37.2467V16.6967C19.2656 15.3341 19.8069 14.0274 20.7704 13.0639C21.7338 12.1005 23.0406 11.5592 24.4031 11.5592H25.6875M12.8437 21.8342H25.6875" stroke="white" stroke-width="2.56875"/>
</g>
<defs>
<clipPath id="clip0_91_312">
<rect width="38.5312" height="38.5312" fill="white"/>
</clipPath>
</defs>
</svg>
