<svg width="43" height="42" viewBox="0 0 43 42" fill="none" xmlns="http://www.w3.org/2000/svg">
<g id="hugeicons:instagram">
<g id="Group">
<path id="Vector" d="M5.125 21C5.125 13.1635 5.125 9.2435 7.55925 6.80925C9.9935 4.375 13.9117 4.375 21.75 4.375C29.5865 4.375 33.5065 4.375 35.9407 6.80925C38.375 9.2435 38.375 13.1617 38.375 21C38.375 28.8365 38.375 32.7565 35.9407 35.1907C33.5065 37.625 29.5883 37.625 21.75 37.625C13.9135 37.625 9.9935 37.625 7.55925 35.1907C5.125 32.7565 5.125 28.8383 5.125 21Z" stroke="white" stroke-width="2.625" stroke-linecap="round" stroke-linejoin="round"/>
<path id="Vector_2" d="M31.389 11.375H31.3715M29.625 21C29.625 23.0886 28.7953 25.0916 27.3185 26.5685C25.8416 28.0453 23.8386 28.875 21.75 28.875C19.6614 28.875 17.6584 28.0453 16.1815 26.5685C14.7047 25.0916 13.875 23.0886 13.875 21C13.875 18.9114 14.7047 16.9084 16.1815 15.4315C17.6584 13.9547 19.6614 13.125 21.75 13.125C23.8386 13.125 25.8416 13.9547 27.3185 15.4315C28.7953 16.9084 29.625 18.9114 29.625 21Z" stroke="white" stroke-width="2.625" stroke-linecap="round" stroke-linejoin="round"/>
</g>
</g>
</svg>
