<svg width="73" height="68" viewBox="0 0 73 68" fill="none" xmlns="http://www.w3.org/2000/svg">
<g id="mdi:dolphin">
<path id="Vector" d="M63.5985 14.1745C63.5985 14.1745 63.5985 2.84116 48.3902 2.84116C43.7364 2.84116 39.7214 3.37949 36.2235 4.25783C34.7027 3.01116 24.8477 -4.78334 14.9318 4.45616L22.7185 11.7095C10.3693 24.1762 14.9318 45.3412 14.9318 45.3412C14.9318 45.3412 5.80682 45.3412 5.80682 56.6745L17.9735 53.8412L30.1402 56.6745C30.1402 45.3412 21.0152 45.3412 21.0152 45.3412C21.0152 45.3412 23.6006 29.0212 42.3068 26.0178V34.0078C48.3902 34.0078 50.4585 28.8795 51.0972 25.5078H57.5152C69.6818 25.5078 72.7235 22.6745 72.7235 19.8412C72.7235 17.0078 66.6402 14.1745 63.5985 14.1745ZM57.5152 17.0078C55.8422 17.0078 54.4735 15.7328 54.4735 14.1745C54.4735 12.6162 55.8422 11.3412 57.5152 11.3412C59.1881 11.3412 60.5568 12.6162 60.5568 14.1745C60.5568 15.7328 59.1881 17.0078 57.5152 17.0078Z" fill="white"/>
</g>
</svg>
